<svg xmlns="http://www.w3.org/2000/svg" width="20" height="14" viewBox="0 0 20 14"><g><g><path fill="#fff" d="M17.5 7.893H20V6.107h-2.5V3.43h-1.667v2.678h-2.5v1.786h2.5v2.679H17.5zm-7.604 3.643c1.006-1.11 1.538-2.629 1.538-4.393 0-.42-.045-.741-.092-1.036H5.833V8.25h3.309c-.136.933-1.003 2.697-3.309 2.697-1.994 0-3.616-1.77-3.616-3.947 0-2.176 1.622-3.946 3.616-3.946 1.15 0 1.899.524 2.325.964l1.584-1.634C8.674 1.315 7.322.75 5.833.75 2.617.75 0 3.554 0 7s2.617 6.25 5.833 6.25c1.641 0 3.046-.593 4.063-1.714z"/></g></g></svg>