<svg xmlns="http://www.w3.org/2000/svg" width="101" height="76" viewBox="0 0 101 76"><g><g><g><g><path fill="#fff" d="M41.956 25.498c0 7.708.003 15.415-.008 23.123-.001.546.19.796.739.763.192-.012.387.006.58-.005.4-.024.541.167.545.557.003.396-.19.494-.538.493-2.82-.009-5.64-.014-8.461-.006-.375.001-.52-.132-.523-.504-.002-.356.114-.52.491-.55 1.347-.11 1.356-.12 1.357-1.453.005-7.457.007-14.913.007-22.37 0-.914-.044-.938-.948-.926-1.449.018-2.897.018-4.346.027-.738.004-.78.043-.78.79v22.66c.004 1.24.004 1.251 1.217 1.273.396.006.608.092.604.548-.004.43-.202.513-.574.511-2.762-.013-5.524-.014-8.287-.019-.096 0-.193 0-.29-.008-.367-.028-.544-.266-.452-.586.052-.178.291-.402.471-.428 1.454-.209 1.455-.196 1.458-1.676l.079-44.797c0-.097.002-.194-.003-.29-.04-.918-.104-.982-1.026-.94-.437.021-.797.028-.811-.588-.013-.526.147-.725.686-.718 2.202.03 4.404.03 6.606.038.56.002 1.12.009 1.68-.008.533-.016.446.377.461.684.016.321-.01.647-.479.598-.019-.003-.039-.002-.058-.002-1.278.016-1.273.016-1.274 1.293-.001 6.53-.005 13.059-.01 19.588 0 .74.054.806.773.81 1.488.006 2.975.006 4.462.01.803.002.841-.025.842-.859.008-6.394.012-12.788.015-19.182 0-.367-.022-.733-.025-1.1-.003-.411-.2-.601-.613-.572-.154.011-.309.001-.463.001-.662-.001-.807-.17-.747-.826.029-.305.163-.437.48-.434 2.84.024 5.68.04 8.52.058.412.003.52.274.518.617-.002.347-.114.567-.54.579-1.328.038-1.34.053-1.34 1.398-.005 7.476-.003 14.952-.003 22.428z"/></g><g><path fill="#fff" d="M89.834 41.7c0 1.719-.008 3.438.004 5.157.006.94.23 1.794 1.065 2.377 1.274.888 3.763.442 3.997-1.534.07-.592.146-1.188.14-1.782-.03-3.167-.032-6.336-.15-9.5-.06-1.602-.668-3.098-1.535-4.438-1.924-2.974-3.904-5.91-5.865-8.86-.682-1.026-1.415-2.021-2.05-3.075-1.017-1.686-1.522-3.54-1.537-5.507-.019-2.606-.084-5.217.04-7.818.112-2.356 1.455-4.093 3.435-5.238 3.305-1.91 6.723-1.92 10 .021 2.15 1.275 3.422 3.222 3.41 5.855-.012 2.434.014 4.868.045 7.302.006.47-.146.666-.626.661-1.545-.016-3.091-.02-4.636-.006-.526.005-.583-.282-.582-.705.006-3.361.02-6.723-.022-10.084-.008-.673-.136-1.394-.408-2.005-.544-1.226-1.69-1.257-2.826-1.158-.927.08-1.612.678-1.865 1.644-.12.462-.204.948-.206 1.424-.015 2.936-.074 5.875.026 8.808.066 1.94.635 3.792 1.721 5.437 1.325 2.007 2.674 4 4.014 5.996 1.255 1.87 2.53 3.726 3.764 5.609 1.163 1.774 1.66 3.768 1.718 5.862.068 2.491.136 4.986.065 7.475-.079 2.763-1.544 4.75-3.918 6.045-2.523 1.375-5.227 1.484-7.91.633-2.253-.714-3.982-2.174-4.879-4.435a5.423 5.423 0 0 1-.378-1.86c-.047-2.588-.028-5.177-.037-7.765-.002-.484.21-.685.708-.678 1.468.022 2.937.007 4.405.011.722.003.771.047.774.799.007 1.777.002 3.555.002 5.332z"/></g><g><path fill="#fff" d="M68.744 41.643c0 1.739-.033 3.478.018 5.215.017.56.163 1.16.415 1.659.42.83 1.654 1.32 2.586 1.16 1.515-.263 2.265-1.046 2.28-2.586.03-3.36.061-6.723-.03-10.082-.06-2.19-.946-4.14-2.179-5.945a564.774 564.774 0 0 1-4.751-7.103c-.987-1.491-1.99-2.975-2.897-4.514-.837-1.418-1.207-3.013-1.245-4.648-.055-2.413.011-4.829-.027-7.243-.044-2.698 1.224-4.675 3.419-6.033 3.081-1.907 6.363-1.965 9.546-.345 2.554 1.3 4.026 3.453 3.991 6.462-.026 2.317-.02 4.635.009 6.953.006.552-.153.752-.715.74-1.468-.03-2.936-.033-4.404-.006-.543.01-.735-.147-.73-.718.022-3.438.007-6.877.004-10.315 0-.868-.122-1.706-.791-2.337-.885-.833-1.975-.758-3-.46-.99.288-1.471 1.157-1.486 2.14-.05 3.36-.131 6.724-.001 10.08.08 2.06.916 3.955 2.108 5.668.9 1.292 1.765 2.61 2.646 3.917 1.354 2.006 2.699 4.018 4.064 6.017 1.412 2.065 2.322 4.286 2.3 6.836-.02 2.415-.047 4.83.01 7.243.063 2.59-1.132 4.475-3.183 5.86-2.412 1.63-5.082 1.843-7.867 1.217-1.99-.448-3.566-1.536-4.754-3.154-.678-.923-1.117-2.006-1.136-3.167-.044-2.665-.012-5.331-.027-7.997-.002-.445.15-.612.608-.605 1.506.024 3.014.035 4.52.004.54-.011.707.182.702.698-.019 1.797-.007 3.593-.007 5.39z"/></g><g><path fill="#fff" d="M7.08 25.549c0 6.993.046 13.986-.03 20.978-.021 1.909 1.856 3.794 4.08 2.9.951-.381 1.53-1.17 1.725-2.17.11-.563.103-1.153.105-1.73.012-3.091.016-6.182.01-9.273 0-.505.167-.724.712-.715 1.487.026 2.975 0 4.462-.001.72 0 .812.065.813.791.006 2.647.05 5.295-.04 7.939-.05 1.473-.792 2.714-1.832 3.758-2.195 2.205-4.896 2.95-7.922 2.727-3.03-.223-5.516-1.462-7.252-4.012-.555-.816-.91-1.739-.911-2.749 0-4.25.002-8.499.022-12.748.038-7.998.094-15.995.132-23.992.013-2.692 1.47-4.464 3.651-5.76C7.416-.06 10.21-.405 13.11.474c2.151.651 3.928 1.913 5.05 3.88.449.789.715 1.777.75 2.687.1 2.546.027 5.099.045 7.648.004.475-.15.66-.626.655-1.487-.016-2.974-.004-4.462-.012-.729-.004-.766-.049-.766-.809.004-3.38.012-6.761.014-10.142.001-1.783-1.167-3.02-2.856-3.033-1.915-.014-3.176 1.175-3.178 3.048-.008 7.051-.003 14.102-.003 21.153z"/></g><g><path fill="#ff4646" d="M49.323 25.316c0-7.145 0-14.29.002-21.435 0-.966.003-1.932.046-2.896.01-.215.16-.565.309-.604.378-.098.76.065.849.49.049.237-.003.55-.128.758-.533.897-.502 1.206.286 1.855.79.652.792.653.227 1.507-.2.302-.193.545.182.682 1.25.458 1.887 1.45 2.33 2.626.241.64.586.708 1.298.373.299-.141.668-.273.972-.221.267.045.488.355.729.547-.172.211-.303.493-.523.62-.945.551-1.84 1.166-2.303 2.186-.522 1.149-.552 2.395-.483 3.634.01.18.19.382.342.514.295.254.204.412-.028.654-.163.169-.34.482-.284.66.062.202.367.343.588.474.107.064.264.039.396.066.516.108.686.46.455.928-.247.498-.131.71.413.763.269.026.567-.009.797.1.21.1.479.358.476.542-.005.219-.226.547-.432.629-.712.282-1.466.453-2.185.72-.19.071-.43.323-.444.507-.135 1.845-.316 3.694-.303 5.54.01 1.301.226 2.614.478 3.896.364 1.856.936 3.658 1.99 5.257.18.272.55.426.845.613.16.1.363.134.524.233.49.304.496.415.07.787-.588.515-.517 1.736.202 2.43.423.409.974.685 1.402 1.09.51.481 1.054.978 1.392 1.577.384.68.457 1.478-.112 2.169-.103.124-.286.182-.392.305-.152.177-.393.407-.365.576.034.204.298.381.488.54.078.067.25.022.327.089.192.167.48.36.494.56.016.222-.2.484-.366.688-.1.123-.29.202-.454.238-.376.083-.517.307-.598.674-.184.828-.522 1.067-1.375 1.068-2.433.005-4.867.01-7.3.009-.805 0-.81-.009-.81-.8V25.315z"/></g></g><g><path fill="#fff" d="M101 75.575h-1.675l-9.31-16.11c.11 1.497.166 3.404.166 5.719v10.391h-1.236V58.111h1.675l9.309 16.11a78.482 78.482 0 0 1-.165-5.105V58.11H101zM72.99 58.903c-1.904 0-3.41.676-4.517 2.03-1.108 1.353-1.661 3.34-1.661 5.961 0 2.57.558 4.528 1.675 5.873 1.116 1.344 2.618 2.017 4.503 2.017 1.96 0 3.483-.669 4.572-2.005 1.09-1.336 1.634-3.306 1.634-5.91 0-2.622-.549-4.605-1.647-5.95-1.099-1.344-2.618-2.016-4.559-2.016zm0-1.047c1.52 0 2.847.345 3.982 1.034 1.135.69 2.018 1.71 2.65 3.064.632 1.353.947 2.991.947 4.915 0 1.89-.31 3.506-.933 4.85-.623 1.345-1.502 2.371-2.637 3.077-1.135.707-2.471 1.06-4.009 1.06-1.501 0-2.82-.349-3.954-1.047-1.135-.698-2.018-1.719-2.65-3.064-.632-1.344-.947-2.961-.947-4.85 0-1.89.315-3.516.947-4.877.632-1.362 1.52-2.396 2.664-3.102 1.144-.707 2.457-1.06 3.94-1.06zm-15.927.255v17.464h-1.29V58.111zm-8.018 0l-.165 1.098h-5.602v16.366h-1.29V59.21h-5.63v-1.098zm-21.694-.255c1.007 0 1.867.128 2.581.383s1.419.647 2.114 1.174l-.713.817c-.66-.476-1.282-.817-1.868-1.02-.586-.205-1.263-.307-2.032-.307-1.849 0-3.35.65-4.503 1.953-1.154 1.302-1.73 3.298-1.73 5.987 0 1.736.27 3.196.81 4.379.54 1.183 1.272 2.068 2.196 2.655.925.587 1.973.881 3.145.881.897 0 1.657-.123 2.279-.37.622-.247 1.263-.617 1.922-1.11l.714.816c-1.391 1.175-3.048 1.762-4.97 1.762-1.446 0-2.733-.349-3.858-1.047-1.126-.698-2.01-1.723-2.65-3.076-.641-1.354-.961-2.983-.961-4.89 0-1.94.33-3.583.988-4.928.66-1.344 1.56-2.357 2.705-3.038 1.144-.68 2.421-1.021 3.83-1.021zM3.433 69.6h7.414l-3.68-10.494zm9.5 5.974l-1.73-4.902H3.049l-1.73 4.902H0l6.343-17.464h1.648l6.343 17.464z"/></g></g></g></svg>