<svg xmlns="http://www.w3.org/2000/svg" width="17" height="16" viewBox="0 0 17 16"><g><g><path fill="#ffa246" d="M10.013 4.41c.25.583.815.981 1.463 1.031l3.272.255c.513.04.72.66.33.985l-2.493 2.073a1.654 1.654 0 0 0-.559 1.67l.762 3.099c.12.485-.425.869-.864.608l-2.8-1.66a1.78 1.78 0 0 0-1.809 0l-2.8 1.66c-.44.26-.984-.123-.865-.608l.762-3.1a1.653 1.653 0 0 0-.559-1.669L1.361 6.681c-.391-.324-.184-.945.33-.985l3.272-.255A1.73 1.73 0 0 0 6.425 4.41l1.26-2.942c.198-.46.87-.46 1.068 0zm-4.656-.431a.577.577 0 0 1-.487.344l-3.272.255c-1.538.12-2.16 1.981-.99 2.955l2.493 2.074a.551.551 0 0 1 .186.556l-.76 3.1c-.36 1.456 1.273 2.607 2.59 1.826l2.801-1.66a.594.594 0 0 1 .602 0l2.802 1.66c1.316.78 2.949-.37 2.59-1.827l-.761-3.1a.55.55 0 0 1 .186-.555l2.493-2.074c1.171-.974.548-2.836-.99-2.955l-3.272-.255a.577.577 0 0 1-.487-.344l-1.26-2.942c-.593-1.383-2.61-1.383-3.203 0z"/></g></g></svg>