<svg xmlns="http://www.w3.org/2000/svg" width="18" height="14" viewBox="0 0 18 14"><g><g><path fill="#fff" d="M17.5 1.636a6.963 6.963 0 0 1-2.003.549A3.493 3.493 0 0 0 17.03.254c-.673.4-1.42.69-2.215.846A3.482 3.482 0 0 0 12.27 0c-2.252 0-3.907 2.1-3.398 4.282A9.901 9.901 0 0 1 1.684.638a3.492 3.492 0 0 0 1.078 4.657 3.473 3.473 0 0 1-1.578-.437c-.039 1.616 1.12 3.128 2.797 3.464a3.496 3.496 0 0 1-1.576.06 3.49 3.49 0 0 0 3.259 2.421A7.013 7.013 0 0 1 .5 12.248a9.874 9.874 0 0 0 5.346 1.567c6.476 0 10.135-5.469 9.914-10.374a7.1 7.1 0 0 0 1.74-1.805z"/></g></g></svg>