<svg xmlns="http://www.w3.org/2000/svg" width="17" height="16" viewBox="0 0 17 16"><g><g><path fill="#ffa246" d="M6.618 1.037c.593-1.383 2.61-1.383 3.202 0l1.261 2.942a.577.577 0 0 0 .487.344l3.273.255c1.537.12 2.16 1.981.99 2.955l-2.494 2.074a.55.55 0 0 0-.186.556l.761 3.1c.359 1.456-1.274 2.607-2.59 1.826L8.52 13.43a.594.594 0 0 0-.602 0l-2.801 1.66c-1.317.78-2.95-.37-2.59-1.827l.76-3.1a.551.551 0 0 0-.186-.555L.608 7.533c-1.17-.974-.548-2.836.99-2.955l3.272-.255a.577.577 0 0 0 .487-.344z"/></g></g></svg>