<svg xmlns="http://www.w3.org/2000/svg" width="18" height="18" viewBox="0 0 18 18"><g><g><path fill="#fff" d="M11.833 9A2.837 2.837 0 0 0 9 6.166 2.837 2.837 0 0 0 6.166 9 2.837 2.837 0 0 0 9 11.833 2.837 2.837 0 0 0 11.833 9zm2.724-4.537a1.02 1.02 0 1 1-2.041-.001 1.02 1.02 0 0 1 2.04.001zM13.365 9A4.37 4.37 0 0 1 9 13.366 4.37 4.37 0 0 1 4.636 9 4.37 4.37 0 0 1 9 4.636 4.37 4.37 0 0 1 13.365 9zM9 17.5c2.272 0 2.577-.01 3.505-.05 3.094-.144 4.804-1.853 4.944-4.945.041-.918.05-1.222.05-3.505 0-2.271-.009-2.577-.05-3.504C17.31 2.403 15.601.694 12.506.552 11.598.51 11.296.5 9 .5 6.717.5 6.414.51 5.496.551 2.403.693.694 2.402.552 5.495.51 6.403.5 6.705.5 9c0 2.283.01 2.587.051 3.505.142 3.092 1.851 4.802 4.944 4.944.928.041 1.234.05 3.505.05z"/></g></g></svg>